<svg id="Layer_1" data-name="Layer 1" xmlns="http://www.w3.org/2000/svg" viewBox="0 0 91.99 121.42"><defs><style>.cls-1{fill:#feb783;}.cls-2{fill:#fec69e;}.cls-3{fill:#feb57f;}.cls-4{fill:#fedabf;}.cls-5{fill:#fed1b0;}.cls-6{fill:#fed6ba;}.cls-7{fill:#fecda9;}.cls-8{fill:#fed1b1;}.cls-9{fill:#feb077;}.cls-10{fill:#fea15d;}.cls-11{fill:#fe903f;}.cls-12{fill:#febf90;}.cls-13{fill:#fe994f;}.cls-14{fill:#fe974b;}.cls-15{fill:#feaa6c;}.cls-16{fill:#fe9447;}.cls-17{fill:#fe852c;}.cls-18{fill:#fea767;}.cls-19{fill:#fe8f3e;}.cls-20{fill:#fec8a0;}.cls-21{fill:#fe7009;}.cls-22{fill:#fe8b37;}.cls-23{fill:#feba89;}.cls-24{fill:#fe9e58;}.cls-25{fill:#fec093;}.cls-26{fill:#fecba6;}.cls-27{fill:#feceab;}.cls-28{fill:#feb37d;}.cls-29{fill:#fec094;}.cls-30{fill:#feb37b;}.cls-31{fill:#feb179;}.cls-32{fill:#febe8f;}.cls-33{fill:#feac71;}.cls-34{fill:#feb782;}.cls-35{fill:#fe7e20;}.cls-36{fill:#fe8f3d;}.cls-37{fill:#fe842b;}.cls-38{fill:#fe7511;}.cls-39{fill:#fec295;}.cls-40{fill:#fe9040;}.cls-41{fill:#fe8c38;}.cls-42{fill:#fe842a;}.cls-43{fill:#feb27b;}.cls-44{fill:#feb47e;}.cls-45{fill:#fe8730;}.cls-46{fill:#fec59a;}.cls-47{fill:#fe6c00;}.cls-48{fill:#fe8126;}.cls-49{fill:#fe7b1c;}.cls-50{fill:#fe720b;}.cls-51{fill:#fe9a51;}.cls-52{fill:#fe8933;}.cls-53{fill:#fe8a35;}.cls-54{fill:#fe8d39;}.cls-55{fill:#fe8125;}.cls-56{fill:#fe8228;}</style></defs><g id="Elipse_1_copiar_Image" data-name="Elipse 1 copiar Image"><path class="cls-1" d="M72.75,55.35c0,1.88,1.17,3.66.47,5.6-1.4-.83-.73-2.6-1.67-3.64A3.59,3.59,0,0,1,71.24,56a5.78,5.78,0,0,0-.66-2.8,13.08,13.08,0,0,0-1-2.34,42.9,42.9,0,0,0-3.12-5.43,7,7,0,0,1-1-2,1.27,1.27,0,0,1,.18-.6c.46-.25.82,0,1.18.23a9.28,9.28,0,0,1,.84.93,14,14,0,0,1,1.94,3.48c.37,1,.85,1.85,1.23,2.8.63,1.22.76,2.7,1.84,3.7Z"/><path class="cls-2" d="M70.88,50.28a5.45,5.45,0,0,1-1.41-2.77.29.29,0,0,1,.4-.08.3.3,0,0,1,.08.08l.93,1.85Z"/><path class="cls-3" d="M58.37,87.81c-.46.2-.87.56-1.43.41-.49-1.2.56-1.42,1.21-1.8A16,16,0,0,0,62,83.94a11,11,0,0,1,.8-1,2.09,2.09,0,0,1,1.6-.82c1,.32,1.4-.48,1.94-1a1.08,1.08,0,0,1,.83-.39,1.09,1.09,0,0,1,.68.65,1.79,1.79,0,0,1-.35,1.22c-1.2,1.5-3.19,2-4.49,3.32a2,2,0,0,0-.42,0,12.78,12.78,0,0,1-2.14,1.26A8,8,0,0,0,58.37,87.81Z"/><path class="cls-4" d="M60.23,86.88c.77-.31,1.42-.93,2.31-.93a3.66,3.66,0,0,1-2.77,1.86h0C59.49,87.27,60,87.14,60.23,86.88Z"/><path class="cls-5" d="M18.54,65.11V62.33c-.51-5.19-.32-10.25,2.76-14.78A3.67,3.67,0,0,1,22.92,46c1.19,1,.09,1.8-.31,2.54-1,1.74-2.09,3.38-2.12,5.47A22.5,22.5,0,0,0,20,57.82a5.78,5.78,0,0,1-.14.7,18.5,18.5,0,0,0,0,5.94A6.46,6.46,0,0,1,20,65.53V67a3.14,3.14,0,0,1-.42,1.77.45.45,0,0,1-.63.07h0C18.39,67.64,19.17,66.29,18.54,65.11Z"/><path class="cls-6" d="M23.19,46.11c-2.66,2.18-3.6,5.19-4.2,8.42a43.3,43.3,0,0,0-.46,7.8c-.94-1.8-.46-3.75-.4-5.61.13-4.2,1-8.19,4.41-11.15.46-.41.87-.87,1.55-.86a.87.87,0,0,1,.2.92C24,46,23.71,46.32,23.19,46.11Z"/><path class="cls-7" d="M25.48,43.78c1.57-1.43,2.83-3.27,5.08-3.76v.07c.27.81-.34,1.2-.77,1.69a27,27,0,0,0-2.54,2.1c-.5.48-1,1.2-1.88.77A.73.73,0,0,1,25.48,43.78Z"/><path class="cls-5" d="M25.48,43.78v.9a1.44,1.44,0,0,1-.85,1.09.65.65,0,0,1-.54-.13v-.93A1.43,1.43,0,0,1,25.48,43.78Z"/><path class="cls-6" d="M18.54,65.11c.91,1.14.27,2.47.46,3.71-.54-.34-.44-.89-.46-1.4Z"/><path class="cls-8" d="M66.91,42.69l2.43,3c.2.67.4,1.34.61,2h-.63l-3-3.52C66.68,43.7,66.19,43,66.91,42.69Z"/><path class="cls-9" d="M67.64,81.32l-.47-.53c-.26-1.25.63-1.69,1.25-2.28,2.66-2.37,3.53-5.81,4.13-9.35a34.28,34.28,0,0,0,.51-7c-.12-.88-.2-2.77.29-3.46a34.8,34.8,0,0,1-.06,14c-.17.76-.37,1.5-.56,2.29a9.94,9.94,0,0,1-3.52,5.43C68.64,80.59,68.47,81.68,67.64,81.32Z"/><path class="cls-10" d="M73.64,62.36c.09,4.76,0,9.48-2.28,13.87a7.46,7.46,0,0,1-2.81,3.23,1.13,1.13,0,0,1-.3-1,30.42,30.42,0,0,0,3.29-6,28.74,28.74,0,0,0,1-7.14c0-1-.25-2.15.64-3A1.79,1.79,0,0,1,73.64,62.36Z"/><path class="cls-11" d="M73.21,62.31c-.12,3.6.29,7.28-1.4,10.68-1.09-1.3-.3-2.73-.08-4a28.15,28.15,0,0,0-.31-10.31,1.55,1.55,0,0,1,.43-1.53c1.67.82.49,2.68,1.37,3.79C73.22,61.4,73.21,61.88,73.21,62.31Z"/><path class="cls-12" d="M66.71,43.32l-.92-.44c-1.48-.48-2.17-1.9-3.32-2.76-.16-.13-.32-.26-.47-.4a8.25,8.25,0,0,0-5.14-1.84,4.32,4.32,0,0,1-2.2-.53c-.61-.44-1.51-.38-1.94-1.13a.55.55,0,0,1,.3-.54c.56-.2,1.11.09,1.67,0a9.54,9.54,0,0,0,2,.27c3.56.48,6.85,1.5,9.13,4.56C66.47,41.34,67.41,42.09,66.71,43.32Z"/><path class="cls-13" d="M65.77,43.33c.28.63,1,1,1,1.84a.93.93,0,0,1-.59.25,7.66,7.66,0,0,1-3.55-3.27c-.16-.41-.34-.83,0-1.26C64.35,40.77,64.83,42.36,65.77,43.33Z"/><path class="cls-14" d="M66.21,45.19h.52A14.58,14.58,0,0,1,70,50.75a.68.68,0,0,1-.6.1c-1-.69-1.25-2-2.11-2.75C66.81,47.16,65.61,46.5,66.21,45.19Z"/><path class="cls-15" d="M65.77,43.33c-1.24-.55-1.7-2.18-3.22-2.33a1,1,0,0,1-.32-.53.87.87,0,0,1,.31-.84,13.2,13.2,0,0,1,3.25,3.25C65.78,43,65.78,43.17,65.77,43.33Z"/><path class="cls-11" d="M69.49,50.74H70a2.85,2.85,0,0,1,.92,2.3c.34.53.23.89-.39,1.07-1.08-.44-1.19-1.43-1.39-2.38A1.22,1.22,0,0,1,69.49,50.74Z"/><path class="cls-16" d="M70.43,54a1,1,0,0,0,.46-.95,3.11,3.11,0,0,1,.89,2.82.57.57,0,0,1-.59.07C70.59,55.41,70.09,54.88,70.43,54Z"/><path class="cls-17" d="M71.34,55.88h.44a8.16,8.16,0,0,0,.07,1.31,10,10,0,0,1,0,1.45h-.39a1.93,1.93,0,0,1-.15-2.73Z"/><path class="cls-18" d="M56.51,88.24l-.43.54a5.93,5.93,0,0,0-2.81,1.34h0c-.66.34-1.46.36-2,.89a3.61,3.61,0,0,1-.94.37,3.76,3.76,0,0,1-1.06,0c-3.26.3-6.52.65-9.65-.69-.68-.18-1.33-.43-2-.66a29.14,29.14,0,0,1-3.84-2,67.56,67.56,0,0,1-6-3.35A6.9,6.9,0,0,1,24.7,81.4a1.32,1.32,0,0,1,.23-1c1.16-.42,1.64.58,2.28,1.15a12.81,12.81,0,0,0,2.34,1.87c4.55,2.89,9.22,5.52,14.71,6.18a16.51,16.51,0,0,0,6.36-.71c.21-.08.42-.13.63-.19a9.74,9.74,0,0,0,2.65-1.25,3.42,3.42,0,0,1,1-.2C55.55,87.39,56.46,87.12,56.51,88.24Z"/><path class="cls-19" d="M56.51,88.24c-.5-.67-1.25-.31-1.88-.46a.5.5,0,0,1,.1-.63,49.66,49.66,0,0,0,6.13-3,1.26,1.26,0,0,1,1.68-.05c-.95,1.29-2.42,1.83-3.74,2.58-.71.39-1.69.48-1.86,1.53A3.11,3.11,0,0,1,56.51,88.24Z"/><path class="cls-20" d="M60.23,86.88l-.48.9H58.37A2.52,2.52,0,0,1,60.23,86.88Z"/><path class="cls-21" d="M54.67,87.36v.42l-.86.07a15.07,15.07,0,0,1-2.44.87A19,19,0,0,1,37.2,87.49c-3-1.85-6.33-3.13-8.93-5.62a21,21,0,0,1-4.94-7.4,3.32,3.32,0,0,1-.13-.7,1.68,1.68,0,0,1,.44-1.32c1.21.16,1.56,1.2,1.93,2.06,2.58,6,7.58,9.09,13.37,11.28,6.11,2.31,11.88,1.37,17.65-1.36a26.75,26.75,0,0,0,9.68-7.27,2.22,2.22,0,0,1,1.71-1c.91.75.09,1.41-.12,2.1-.63,1.65-2.12,2.62-3.13,4l-.27.16-1.36.89C60.27,84.61,57.73,86.52,54.67,87.36Z"/><path class="cls-17" d="M54.67,87.36c2.87-1.22,5.32-3.31,8.39-4.13-.17.29-.35.58-.52.88-2,.42-3.36,2-5.25,2.6C56.43,87,55.54,87.14,54.67,87.36Z"/><path class="cls-22" d="M68.57,78.55v.91a3,3,0,0,0-1.38,1.41l-.47.44a.73.73,0,0,1-.94.11A3.5,3.5,0,0,1,68.57,78.55Z"/><path class="cls-10" d="M65.78,81.33h.92c-1.4,1.89-1.4,1.89-2.28,1l0-.12C64.84,81.88,64.92,81,65.78,81.33Z"/><path class="cls-23" d="M69,80.39v.49a2.27,2.27,0,0,1-1.86,1.39l.47-.93Z"/><path class="cls-24" d="M31.93,39.57l1-.92a3.36,3.36,0,0,1,.49-.35,10.23,10.23,0,0,0,2.4-1.16,4,4,0,0,1,.56-.25c.91-.22,1.71-.76,2.65-.9a1.32,1.32,0,0,1,.91.3.86.86,0,0,1,.06.63c-1.1,1.27-3,1.34-4.09,2.58-1,.62-1.8,1.46-3,1.49a1.54,1.54,0,0,1-1-.4A.92.92,0,0,1,31.93,39.57Z"/><path class="cls-25" d="M48.18,34.51h.46c1.34.64,3.16-.23,4.18,1.37h0a1.87,1.87,0,0,1-1.92.45c-3.85-1.11-7.71-.83-11.58-.24A4.24,4.24,0,0,1,38.14,36a.44.44,0,0,1-.13-.61l.06-.07C41.31,33.69,44.75,34.11,48.18,34.51Z"/><path class="cls-26" d="M48.18,34.51c-3.43.19-7-.68-10.2,1.39a1,1,0,0,1-1.33.05s0,0,0-.05C40.2,33.26,44.14,33.48,48.18,34.51Z"/><path class="cls-27" d="M52.82,35.88c-1.21-1-2.94-.46-4.18-1.37H50.5l4.17.93c.15.11.21.21.15.31s-.1.16-.15.16Z"/><path class="cls-28" d="M31.93,39.57v1a2.15,2.15,0,0,1-1.43,1.55,1,1,0,0,1-.83-.37c0-.1-.07-.21-.1-.31l1-1.32Z"/><path class="cls-26" d="M33.35,38.68h-.46c.34-1.48,1.57-1.87,2.79-2.27.26.46,0,.76-.31,1.06A12.14,12.14,0,0,1,33.35,38.68Z"/><path class="cls-25" d="M35.21,37.3c.16-.31.31-.62.47-.92l.92-.48H38c0,1.24-1.32.82-1.86,1.39h0a.65.65,0,0,1-.92,0Z"/><path class="cls-29" d="M24.09,45.64h.46c.62.86-.06,1.42-.5,2a18.2,18.2,0,0,0-3.14,5.81,2.15,2.15,0,0,1-.37.57.5.5,0,0,1-.61,0c-.16-2.56,1.49-4.4,2.59-6.45.25-.46.66-.84.67-1.42Z"/><path class="cls-30" d="M19.47,67V65.57a.59.59,0,0,1,.69,0,28.38,28.38,0,0,1,2,8.86,1.06,1.06,0,0,1-.44.56.47.47,0,0,1-.57-.28c-.47-1.63-.82-3.29-1.22-4.94h0C19.36,68.88,20.09,67.82,19.47,67Z"/><path class="cls-31" d="M19.94,65.57h-.48v-.9a19.82,19.82,0,0,1,0-6.52h0c.49-.7.12-1.5.28-2.23.12-.53.36-.86.9-.35A26.75,26.75,0,0,1,19.94,65.57Z"/><path class="cls-30" d="M19.46,58.15v6.52A10.11,10.11,0,0,1,19.46,58.15Z"/><path class="cls-30" d="M20.4,55.37c-1,.7,0,2.09-1,2.78A11.32,11.32,0,0,1,19.88,54h.47A1,1,0,0,1,20.4,55.37Z"/><path class="cls-32" d="M19.47,67c.81.82.32,1.85.45,2.78a1,1,0,0,1-.46-.93Z"/><path class="cls-31" d="M20.42,53.56c.35-2.43,1.75-4.32,3.14-6.21.4-.54,1-.94,1-1.72l.93-1c1.53-.89,2.42-2.6,4.13-3.26l.09.12c.56,1.12-.39,1.65-1,2.29-1.45,1.63-3.25,2.94-4.41,4.84a18.38,18.38,0,0,0-2.17,3.71C21.88,53.08,21.6,54.06,20.42,53.56Z"/><path class="cls-17" d="M65.78,81.33l-1.41.89c.27-1.83,2.58-2.26,2.82-4.11,1.6-1,2.18-2.82,2.77-4.42a21.65,21.65,0,0,0,1.41-11.53c-.21-1.2-.49-2.45.43-3.54h0c1.54,4.17.91,8.37.21,12.57-.1.6-.14,1.21-.21,1.81a12.44,12.44,0,0,1-3.24,5.56A9.91,9.91,0,0,0,65.78,81.33Z"/><path class="cls-33" d="M38.92,35.88a20.32,20.32,0,0,1,11.64-.23,16.82,16.82,0,0,0,2.25.24l1.87.91a2,2,0,0,1-1.42.6,6.65,6.65,0,0,1-3.44-.54c-2.36-.56-4.69-1.11-7.15-.43-.88.24-1.91.69-2.83-.09h-.92c-.16-.1-.21-.2-.16-.31S38.87,35.88,38.92,35.88Z"/><path class="cls-15" d="M53.26,36.88h1.42a3.91,3.91,0,0,0,2.3.47,17.86,17.86,0,0,1,5.56,2.31v1c-1.92.54-3-1.42-4.77-1.5-1-.37-2-.6-3-.92C54.15,37.93,53.24,37.88,53.26,36.88Z"/><path class="cls-34" d="M62.54,39.61,57,37.3A7.52,7.52,0,0,1,62.54,39.61Z"/><path class="cls-35" d="M66.21,45.19,67.64,48a.74.74,0,0,1,.1.93.63.63,0,0,1-.83-.15,68.43,68.43,0,0,0-6.62-7.1.7.7,0,0,1-.14-.65,1.1,1.1,0,0,1,.93-.33c.84.13,1.24.91,1.92,1.29A15.7,15.7,0,0,0,66.21,45.19Z"/><path class="cls-36" d="M63,41.94c-.8,0-1.21-.68-1.85-.93-1.14-.52-2.56-.49-3.33-1.72a.66.66,0,0,1,.09-.61c1.84-.11,3,1.48,4.63,1.88V41Z"/><path class="cls-37" d="M67.64,48.88v-.94c1.11.6,1.24,1.85,1.85,2.79v.92a.51.51,0,0,1-.6.06C68.23,50.88,67.28,50.18,67.64,48.88Z"/><path class="cls-38" d="M69,51.66h.46L70.43,54l.91,1.86c.13.93-.36,2,.46,2.78.39,4.43.83,8.87-.51,13.21-.76,2.46-1.43,5-4.1,6.28.22-.67,1-1.07.91-1.88-.37-1.66,1-2.61,1.61-3.84A28.09,28.09,0,0,0,70,57.72a6.71,6.71,0,0,1-.61-2,5.88,5.88,0,0,0-.65-2.5,2.41,2.41,0,0,1-.12-.65A1.09,1.09,0,0,1,69,51.66Z"/><path class="cls-39" d="M32.89,87.82h1a9.63,9.63,0,0,1,3.7,1.85l-.23.22a1.47,1.47,0,0,1-1.17-.21l-2.32-.93Z"/><path class="cls-32" d="M21.3,74.88h-.45c-.32-1.7-1.08-3.31-.93-5.1A16.09,16.09,0,0,1,21.3,74.88Z"/><path class="cls-40" d="M20.42,53.56c1.53-.38,1.14-2,1.87-2.88s.87-1.78,1.79-2.28a.81.81,0,0,1,.64.7,2.29,2.29,0,0,1-.57,1.23c-2.18,2.75-2.48,6.08-2.91,9.38a12.89,12.89,0,0,0,0,5.32,34.08,34.08,0,0,0,2.44,10.33A31.45,31.45,0,0,0,29.27,83a.83.83,0,0,1-.11.63c-1.92-.41-2.55-2.46-4.16-3.27a9.93,9.93,0,0,1-3.19-5.51c-.63-3.09-1.25-6.17-1.87-9.26-.26-3.42.29-6.8.46-10.2V54C20.41,53.88,20.42,53.7,20.42,53.56Z"/><path class="cls-41" d="M29.19,83.66v-.48c2.6.88,4.81,2.55,7.3,3.66,4.18,2.17,8.52,3.27,13.22,2,.51-.14,1.17-.71,1.26.42-5.07,2.19-9.87.9-14.51-1.3C33.92,86.72,31.18,85.82,29.19,83.66Z"/><path class="cls-42" d="M51,89.22c-2-.49-3.92.69-6,.51a20.2,20.2,0,0,1-8.84-2.84.63.63,0,0,1,.9,0l0,0a21.15,21.15,0,0,0,14.35,1.39.61.61,0,0,1,.06.86l-.06.06A2.16,2.16,0,0,1,51,89.22Z"/><path class="cls-43" d="M49.58,91a13.18,13.18,0,0,1-10.2-.44c-.16-.1-.21-.21-.16-.31s.1-.15.16-.15c3.1.83,6.21,1.41,9.42.52C49,90.6,49.31,90.88,49.58,91Z"/><path class="cls-44" d="M21.81,74.88q1.61,2.79,3.22,5.56v.94l-1.85-1.86c-.58-1.56-1.68-2.91-1.86-4.63Z"/><path class="cls-45" d="M51.42,89.2v-.92a3.45,3.45,0,0,1,2.35-.43A3,3,0,0,1,51.42,89.2Z"/><path class="cls-39" d="M39.38,90.14v.46H38c-.25-.26-.74-.39-.47-.92h0A3.21,3.21,0,0,1,39.38,90.14Z"/><path class="cls-46" d="M37.52,89.68l.47.92a2.6,2.6,0,0,1-1.85-.93Z"/><path class="cls-47" d="M70,73l-1.86,3.24c-2,1.44-3.19,3.65-5.24,5.1C57.74,84.92,52.29,88,46,87.7c-8.32-.34-15.39-3.8-20.15-11-.86-1.3-1.17-3-2.23-4.19-1.53-1.13-1.53-2.81-1.53-4.47a7.14,7.14,0,0,0-.28-2.52,6.1,6.1,0,0,1-.18-1.47V60.71c.4-6.59,3.48-11.85,8-16.4C35.45,39.13,42,36.59,50,37.91a23.78,23.78,0,0,1,14.43,7.55A33.59,33.59,0,0,1,69,52.59v.47c.38.74.5,1.59.92,2.31a3.14,3.14,0,0,0,.47,1.86C71.43,62.51,71.67,67.78,70,73Z"/><path class="cls-21" d="M30.09,44.71C29,46,27.9,47.25,26.8,48.51c-3,3.43-4,7.6-4.59,12a6,6,0,0,0,0,3.71v1.39c.55.69-.11,1.63.47,2.32-.3,1.66.46,3.12.92,4.63v1.32c-.76.09-.83-.53-1-1C20.14,65,19.83,57.26,24.05,49.8l.5-.92a1.47,1.47,0,0,1,.39-1.18c1.54-1,2.39-2.79,4.24-3.35A1.09,1.09,0,0,1,30.09,44.71Z"/><path class="cls-48" d="M24.09,49.81a5.42,5.42,0,0,1-.83,2.58,27.46,27.46,0,0,0,.37,21.49v.47a1.11,1.11,0,0,1,0,1.38c-2.09-3.24-2.69-6.88-2.78-10.65a14.5,14.5,0,0,1,0-5.57C21,56,21.34,52.5,24.09,49.81Z"/><path class="cls-49" d="M23.63,75.76V74.38A22.75,22.75,0,0,0,35.75,86a7.68,7.68,0,0,1,1.34.87h-.93a29.72,29.72,0,0,1-7-3.71C26.47,81.36,25.09,78.56,23.63,75.76Z"/><path class="cls-50" d="M30.09,44.71h-.93c-.32-1,.63-1.41,1-2.11a1.64,1.64,0,0,1,.47-.4,14.25,14.25,0,0,1,2.29-1.64c1.1-.12,1.75-1.11,2.75-1.43a13.92,13.92,0,0,1,2.06-.89c6.19-2.74,12.31-1.58,18.37.41A11.66,11.66,0,0,1,60.23,41a41.37,41.37,0,0,1,7.42,7.88c.28,1,1.29,1.66,1.39,2.77v.93a22.46,22.46,0,0,1-2.51-3.54C62.2,41.63,55.24,38.88,47.09,38.23a19.75,19.75,0,0,0-14.47,4.65C31.82,43.51,30.53,43.52,30.09,44.71Z"/><path class="cls-51" d="M39.84,36.37c3.4-.76,6.8-1.39,10.2,0-.67.68-1.53.38-2.31.46-2,.15-4-.35-6,.37a2.08,2.08,0,0,1-1.92-.36Z"/><path class="cls-42" d="M39.85,36.88H41.7c-1,1.39-2.93.91-4.17,1.86a3,3,0,0,1-1.87.44C36.67,37.66,38.43,37.57,39.85,36.88Z"/><path class="cls-52" d="M32.91,40.56a3.57,3.57,0,0,1-2.31,1.88.36.36,0,0,1-.13-.36c0-.12.06-.18.1-.18A3.17,3.17,0,0,1,32,40.54Z"/><path class="cls-28" d="M35.21,37.3h.93c-.8.71-1.57,1.51-2.79,1.38C33.69,37.88,34.54,37.68,35.21,37.3Z"/><path class="cls-28" d="M38.92,35.88v.46a5.94,5.94,0,0,1-2.78.93L38,35.88Z"/><path class="cls-53" d="M30.57,41.88v1C28.5,44.31,27.05,46.44,25,48a1,1,0,0,1-.44.91l-.52-.49c.51-1.79,2.2-2.6,3.26-3.93.78-1,2.08-1.54,2.36-2.93Z"/><path class="cls-54" d="M47.72,36.38h2.37c1,.64,2.13.43,3.22.47,1.34,1.14,3.31.68,4.65,1.84v.47c-2.82-.23-5.43-1.37-8.17-2C49.09,37.05,48,37.65,47.72,36.38Z"/><path class="cls-55" d="M47.72,36.38l10.19,2.77c1.07.64,2.34.92,3.24,1.86h-.93c-5.09-2.24-10.28-4-16-3.75-2.36.09-4.43,1.22-6.72,1.43,1.1-1.28,2.92-.93,4.17-1.86C43.65,35.94,45.71,36.54,47.72,36.38Z"/><path class="cls-50" d="M70,73c1.28-5.22,1.09-10.49.47-15.76C71.85,62.53,72.09,67.79,70,73Z"/><path class="cls-50" d="M70,55.37A2.68,2.68,0,0,1,69,53.06,2.66,2.66,0,0,1,70,55.37Z"/><path class="cls-53" d="M20.85,59.54v5.57A7.36,7.36,0,0,1,20.85,59.54Z"/><path class="cls-21" d="M22.24,64.18a3.5,3.5,0,0,1,0-3.71Z"/><path class="cls-21" d="M22.71,67.88c-.78-.65-.35-1.54-.47-2.32C23,66.22,22.59,67.11,22.71,67.88Z"/><path class="cls-56" d="M25.09,48c1.67-1.89,3.13-4,5.54-5.12l-1.39,1.85C27.58,45.51,26.94,47.55,25.09,48Z"/><path d="M23.33,62.82A23.09,23.09,0,1,1,46.41,86.14,23.08,23.08,0,0,1,23.33,62.82Z"/></g></svg>